<mxfile host="app.diagrams.net" modified="2023-12-08T14:06:52.602Z" agent="Mozilla/5.0 (Windows NT 10.0; Win64; x64) AppleWebKit/537.36 (KHTML, like Gecko) Chrome/119.0.0.0 Safari/537.36" etag="NwvScKMphUr4sdRv8dKy" version="22.1.7" type="github">
  <diagram name="Page-1" id="13e1069c-82ec-6db2-03f1-153e76fe0fe0">
    <mxGraphModel dx="1222" dy="652" grid="1" gridSize="10" guides="1" tooltips="1" connect="1" arrows="1" fold="1" page="1" pageScale="1" pageWidth="1100" pageHeight="850" background="none" math="0" shadow="0">
      <root>
        <mxCell id="0" />
        <mxCell id="1" parent="0" />
        <mxCell id="5peGIHOA3GwTtaJnXcMC-197" value="" style="html=1;verticalAlign=bottom;labelBackgroundColor=none;endArrow=block;endFill=1;rounded=0;" edge="1" parent="1" target="5peGIHOA3GwTtaJnXcMC-196">
          <mxGeometry width="160" relative="1" as="geometry">
            <mxPoint x="325" y="1665" as="sourcePoint" />
            <mxPoint x="115" y="1665" as="targetPoint" />
          </mxGeometry>
        </mxCell>
        <mxCell id="ZOhaSuwWIl92PCHRy_8t-1" value="" style="shape=umlActor;verticalLabelPosition=bottom;verticalAlign=top;html=1;outlineConnect=0;" parent="1" vertex="1">
          <mxGeometry x="95" y="170" width="30" height="60" as="geometry" />
        </mxCell>
        <mxCell id="ZOhaSuwWIl92PCHRy_8t-4" value="Faculty/Secretary" style="shape=umlLifeline;perimeter=lifelinePerimeter;whiteSpace=wrap;html=1;container=1;dropTarget=0;collapsible=0;recursiveResize=0;outlineConnect=0;portConstraint=eastwest;newEdgeStyle={&quot;edgeStyle&quot;:&quot;elbowEdgeStyle&quot;,&quot;elbow&quot;:&quot;vertical&quot;,&quot;curved&quot;:0,&quot;rounded&quot;:0};" parent="1" vertex="1">
          <mxGeometry x="60" y="240" width="100" height="300" as="geometry" />
        </mxCell>
        <mxCell id="ZOhaSuwWIl92PCHRy_8t-5" value="" style="html=1;points=[[0,0,0,0,5],[0,1,0,0,-5],[1,0,0,0,5],[1,1,0,0,-5]];perimeter=orthogonalPerimeter;outlineConnect=0;targetShapes=umlLifeline;portConstraint=eastwest;newEdgeStyle={&quot;curved&quot;:0,&quot;rounded&quot;:0};" parent="ZOhaSuwWIl92PCHRy_8t-4" vertex="1">
          <mxGeometry x="45" y="80" width="10" height="200" as="geometry" />
        </mxCell>
        <mxCell id="ZOhaSuwWIl92PCHRy_8t-22" value="System" style="shape=umlLifeline;perimeter=lifelinePerimeter;whiteSpace=wrap;html=1;container=1;dropTarget=0;collapsible=0;recursiveResize=0;outlineConnect=0;portConstraint=eastwest;newEdgeStyle={&quot;edgeStyle&quot;:&quot;elbowEdgeStyle&quot;,&quot;elbow&quot;:&quot;vertical&quot;,&quot;curved&quot;:0,&quot;rounded&quot;:0};" parent="1" vertex="1">
          <mxGeometry x="340" y="240" width="100" height="300" as="geometry" />
        </mxCell>
        <mxCell id="ZOhaSuwWIl92PCHRy_8t-23" value="" style="html=1;points=[[0,0,0,0,5],[0,1,0,0,-5],[1,0,0,0,5],[1,1,0,0,-5]];perimeter=orthogonalPerimeter;outlineConnect=0;targetShapes=umlLifeline;portConstraint=eastwest;newEdgeStyle={&quot;curved&quot;:0,&quot;rounded&quot;:0};" parent="ZOhaSuwWIl92PCHRy_8t-22" vertex="1">
          <mxGeometry x="45" y="80" width="10" height="200" as="geometry" />
        </mxCell>
        <mxCell id="ZOhaSuwWIl92PCHRy_8t-27" style="edgeStyle=orthogonalEdgeStyle;rounded=0;orthogonalLoop=1;jettySize=auto;html=1;curved=0;exitX=1;exitY=0;exitDx=0;exitDy=5;exitPerimeter=0;entryX=0;entryY=0;entryDx=0;entryDy=5;entryPerimeter=0;" parent="1" source="ZOhaSuwWIl92PCHRy_8t-5" target="ZOhaSuwWIl92PCHRy_8t-23" edge="1">
          <mxGeometry relative="1" as="geometry" />
        </mxCell>
        <mxCell id="ZOhaSuwWIl92PCHRy_8t-28" value="Login" style="edgeLabel;html=1;align=center;verticalAlign=middle;resizable=0;points=[];" parent="ZOhaSuwWIl92PCHRy_8t-27" vertex="1" connectable="0">
          <mxGeometry x="-0.2506" relative="1" as="geometry">
            <mxPoint x="26" y="-5" as="offset" />
          </mxGeometry>
        </mxCell>
        <mxCell id="ZOhaSuwWIl92PCHRy_8t-29" value="alt" style="shape=umlFrame;whiteSpace=wrap;html=1;pointerEvents=0;recursiveResize=0;container=1;collapsible=0;width=80;height=30;" parent="1" vertex="1">
          <mxGeometry x="10" y="370" width="710" height="170" as="geometry" />
        </mxCell>
        <mxCell id="ZOhaSuwWIl92PCHRy_8t-31" value="[else]" style="line;strokeWidth=1;dashed=1;labelPosition=center;verticalLabelPosition=bottom;align=left;verticalAlign=top;spacingLeft=20;spacingTop=15;html=1;whiteSpace=wrap;" parent="ZOhaSuwWIl92PCHRy_8t-29" vertex="1">
          <mxGeometry y="40" width="710" height="75" as="geometry" />
        </mxCell>
        <mxCell id="ZOhaSuwWIl92PCHRy_8t-39" value="" style="html=1;verticalAlign=bottom;labelBackgroundColor=none;endArrow=block;endFill=1;dashed=1;rounded=0;" parent="ZOhaSuwWIl92PCHRy_8t-29" edge="1">
          <mxGeometry width="160" relative="1" as="geometry">
            <mxPoint x="659.5" y="30" as="sourcePoint" />
            <mxPoint x="385" y="30" as="targetPoint" />
          </mxGeometry>
        </mxCell>
        <mxCell id="ZOhaSuwWIl92PCHRy_8t-40" value="Account Found" style="edgeLabel;html=1;align=center;verticalAlign=middle;resizable=0;points=[];" parent="ZOhaSuwWIl92PCHRy_8t-39" vertex="1" connectable="0">
          <mxGeometry x="0.1718" relative="1" as="geometry">
            <mxPoint x="12" as="offset" />
          </mxGeometry>
        </mxCell>
        <mxCell id="ZOhaSuwWIl92PCHRy_8t-41" value="" style="html=1;verticalAlign=bottom;labelBackgroundColor=none;endArrow=block;endFill=1;dashed=1;rounded=0;" parent="ZOhaSuwWIl92PCHRy_8t-29" edge="1">
          <mxGeometry width="160" relative="1" as="geometry">
            <mxPoint x="374.5" y="55" as="sourcePoint" />
            <mxPoint x="110" y="55" as="targetPoint" />
          </mxGeometry>
        </mxCell>
        <mxCell id="ZOhaSuwWIl92PCHRy_8t-42" value="Login Success" style="edgeLabel;html=1;align=center;verticalAlign=middle;resizable=0;points=[];" parent="ZOhaSuwWIl92PCHRy_8t-41" vertex="1" connectable="0">
          <mxGeometry x="0.1718" relative="1" as="geometry">
            <mxPoint as="offset" />
          </mxGeometry>
        </mxCell>
        <mxCell id="ZOhaSuwWIl92PCHRy_8t-43" value="" style="html=1;verticalAlign=bottom;labelBackgroundColor=none;endArrow=block;endFill=1;dashed=1;rounded=0;" parent="ZOhaSuwWIl92PCHRy_8t-29" target="ZOhaSuwWIl92PCHRy_8t-23" edge="1">
          <mxGeometry width="160" relative="1" as="geometry">
            <mxPoint x="654.5" y="120" as="sourcePoint" />
            <mxPoint x="390" y="120" as="targetPoint" />
          </mxGeometry>
        </mxCell>
        <mxCell id="ZOhaSuwWIl92PCHRy_8t-44" value="Account Not Found" style="edgeLabel;html=1;align=center;verticalAlign=middle;resizable=0;points=[];" parent="ZOhaSuwWIl92PCHRy_8t-43" vertex="1" connectable="0">
          <mxGeometry x="0.1718" relative="1" as="geometry">
            <mxPoint x="12" as="offset" />
          </mxGeometry>
        </mxCell>
        <mxCell id="ZOhaSuwWIl92PCHRy_8t-51" value="" style="html=1;verticalAlign=bottom;labelBackgroundColor=none;endArrow=block;endFill=1;rounded=0;" parent="ZOhaSuwWIl92PCHRy_8t-29" edge="1">
          <mxGeometry width="160" relative="1" as="geometry">
            <mxPoint x="375" y="140" as="sourcePoint" />
            <mxPoint x="110" y="140" as="targetPoint" />
          </mxGeometry>
        </mxCell>
        <mxCell id="ZOhaSuwWIl92PCHRy_8t-52" value="Login Again" style="edgeLabel;html=1;align=center;verticalAlign=middle;resizable=0;points=[];" parent="ZOhaSuwWIl92PCHRy_8t-51" vertex="1" connectable="0">
          <mxGeometry x="0.2772" y="-1" relative="1" as="geometry">
            <mxPoint x="21" as="offset" />
          </mxGeometry>
        </mxCell>
        <mxCell id="ZOhaSuwWIl92PCHRy_8t-33" value="Database" style="shape=umlLifeline;perimeter=lifelinePerimeter;whiteSpace=wrap;html=1;container=1;dropTarget=0;collapsible=0;recursiveResize=0;outlineConnect=0;portConstraint=eastwest;newEdgeStyle={&quot;edgeStyle&quot;:&quot;elbowEdgeStyle&quot;,&quot;elbow&quot;:&quot;vertical&quot;,&quot;curved&quot;:0,&quot;rounded&quot;:0};" parent="1" vertex="1">
          <mxGeometry x="620" y="240" width="100" height="300" as="geometry" />
        </mxCell>
        <mxCell id="ZOhaSuwWIl92PCHRy_8t-37" value="" style="html=1;points=[[0,0,0,0,5],[0,1,0,0,-5],[1,0,0,0,5],[1,1,0,0,-5]];perimeter=orthogonalPerimeter;outlineConnect=0;targetShapes=umlLifeline;portConstraint=eastwest;newEdgeStyle={&quot;curved&quot;:0,&quot;rounded&quot;:0};" parent="ZOhaSuwWIl92PCHRy_8t-33" vertex="1">
          <mxGeometry x="45" y="110" width="10" height="150" as="geometry" />
        </mxCell>
        <mxCell id="ZOhaSuwWIl92PCHRy_8t-35" style="edgeStyle=orthogonalEdgeStyle;rounded=0;orthogonalLoop=1;jettySize=auto;html=1;curved=0;" parent="1" edge="1">
          <mxGeometry relative="1" as="geometry">
            <mxPoint x="400" y="350" as="sourcePoint" />
            <mxPoint x="660" y="350" as="targetPoint" />
          </mxGeometry>
        </mxCell>
        <mxCell id="ZOhaSuwWIl92PCHRy_8t-36" value="Verify Account&amp;nbsp;" style="edgeLabel;html=1;align=center;verticalAlign=middle;resizable=0;points=[];" parent="ZOhaSuwWIl92PCHRy_8t-35" vertex="1" connectable="0">
          <mxGeometry x="-0.2506" relative="1" as="geometry">
            <mxPoint x="26" y="-5" as="offset" />
          </mxGeometry>
        </mxCell>
        <mxCell id="5peGIHOA3GwTtaJnXcMC-1" value="Secretary" style="shape=umlLifeline;perimeter=lifelinePerimeter;whiteSpace=wrap;html=1;container=1;dropTarget=0;collapsible=0;recursiveResize=0;outlineConnect=0;portConstraint=eastwest;newEdgeStyle={&quot;edgeStyle&quot;:&quot;elbowEdgeStyle&quot;,&quot;elbow&quot;:&quot;vertical&quot;,&quot;curved&quot;:0,&quot;rounded&quot;:0};" vertex="1" parent="1">
          <mxGeometry x="60" y="770" width="100" height="930" as="geometry" />
        </mxCell>
        <mxCell id="5peGIHOA3GwTtaJnXcMC-11" value="" style="html=1;points=[[0,0,0,0,5],[0,1,0,0,-5],[1,0,0,0,5],[1,1,0,0,-5]];perimeter=orthogonalPerimeter;outlineConnect=0;targetShapes=umlLifeline;portConstraint=eastwest;newEdgeStyle={&quot;curved&quot;:0,&quot;rounded&quot;:0};" vertex="1" parent="5peGIHOA3GwTtaJnXcMC-1">
          <mxGeometry x="45" y="70" width="10" height="220" as="geometry" />
        </mxCell>
        <mxCell id="5peGIHOA3GwTtaJnXcMC-195" value="" style="html=1;points=[[0,0,0,0,5],[0,1,0,0,-5],[1,0,0,0,5],[1,1,0,0,-5]];perimeter=orthogonalPerimeter;outlineConnect=0;targetShapes=umlLifeline;portConstraint=eastwest;newEdgeStyle={&quot;curved&quot;:0,&quot;rounded&quot;:0};" vertex="1" parent="5peGIHOA3GwTtaJnXcMC-1">
          <mxGeometry x="45" y="330" width="10" height="370" as="geometry" />
        </mxCell>
        <mxCell id="5peGIHOA3GwTtaJnXcMC-2" value="System" style="shape=umlLifeline;perimeter=lifelinePerimeter;whiteSpace=wrap;html=1;container=1;dropTarget=0;collapsible=0;recursiveResize=0;outlineConnect=0;portConstraint=eastwest;newEdgeStyle={&quot;edgeStyle&quot;:&quot;elbowEdgeStyle&quot;,&quot;elbow&quot;:&quot;vertical&quot;,&quot;curved&quot;:0,&quot;rounded&quot;:0};" vertex="1" parent="1">
          <mxGeometry x="280" y="770" width="100" height="930" as="geometry" />
        </mxCell>
        <mxCell id="5peGIHOA3GwTtaJnXcMC-12" value="" style="html=1;points=[[0,0,0,0,5],[0,1,0,0,-5],[1,0,0,0,5],[1,1,0,0,-5]];perimeter=orthogonalPerimeter;outlineConnect=0;targetShapes=umlLifeline;portConstraint=eastwest;newEdgeStyle={&quot;curved&quot;:0,&quot;rounded&quot;:0};" vertex="1" parent="5peGIHOA3GwTtaJnXcMC-2">
          <mxGeometry x="45" y="70" width="10" height="200" as="geometry" />
        </mxCell>
        <mxCell id="5peGIHOA3GwTtaJnXcMC-62" value="" style="html=1;points=[[0,0,0,0,5],[0,1,0,0,-5],[1,0,0,0,5],[1,1,0,0,-5]];perimeter=orthogonalPerimeter;outlineConnect=0;targetShapes=umlLifeline;portConstraint=eastwest;newEdgeStyle={&quot;curved&quot;:0,&quot;rounded&quot;:0};" vertex="1" parent="5peGIHOA3GwTtaJnXcMC-2">
          <mxGeometry x="45" y="330" width="10" height="350" as="geometry" />
        </mxCell>
        <mxCell id="5peGIHOA3GwTtaJnXcMC-95" value="" style="html=1;points=[[0,0,0,0,5],[0,1,0,0,-5],[1,0,0,0,5],[1,1,0,0,-5]];perimeter=orthogonalPerimeter;outlineConnect=0;targetShapes=umlLifeline;portConstraint=eastwest;newEdgeStyle={&quot;curved&quot;:0,&quot;rounded&quot;:0};" vertex="1" parent="5peGIHOA3GwTtaJnXcMC-2">
          <mxGeometry x="45" y="745" width="10" height="155" as="geometry" />
        </mxCell>
        <mxCell id="5peGIHOA3GwTtaJnXcMC-9" value="" style="shape=umlActor;verticalLabelPosition=bottom;verticalAlign=top;html=1;outlineConnect=0;" vertex="1" parent="1">
          <mxGeometry x="95" y="700" width="30" height="60" as="geometry" />
        </mxCell>
        <mxCell id="5peGIHOA3GwTtaJnXcMC-13" style="edgeStyle=orthogonalEdgeStyle;rounded=0;orthogonalLoop=1;jettySize=auto;html=1;curved=0;exitX=1;exitY=0;exitDx=0;exitDy=5;exitPerimeter=0;entryX=0;entryY=0;entryDx=0;entryDy=5;entryPerimeter=0;" edge="1" parent="1" source="5peGIHOA3GwTtaJnXcMC-11" target="5peGIHOA3GwTtaJnXcMC-12">
          <mxGeometry relative="1" as="geometry" />
        </mxCell>
        <mxCell id="5peGIHOA3GwTtaJnXcMC-14" value="Press faculty button" style="edgeLabel;html=1;align=center;verticalAlign=middle;resizable=0;points=[];" vertex="1" connectable="0" parent="5peGIHOA3GwTtaJnXcMC-13">
          <mxGeometry x="-0.1905" relative="1" as="geometry">
            <mxPoint x="10" y="-5" as="offset" />
          </mxGeometry>
        </mxCell>
        <mxCell id="5peGIHOA3GwTtaJnXcMC-15" value="Database" style="shape=umlLifeline;perimeter=lifelinePerimeter;whiteSpace=wrap;html=1;container=1;dropTarget=0;collapsible=0;recursiveResize=0;outlineConnect=0;portConstraint=eastwest;newEdgeStyle={&quot;edgeStyle&quot;:&quot;elbowEdgeStyle&quot;,&quot;elbow&quot;:&quot;vertical&quot;,&quot;curved&quot;:0,&quot;rounded&quot;:0};" vertex="1" parent="1">
          <mxGeometry x="500" y="770" width="100" height="930" as="geometry" />
        </mxCell>
        <mxCell id="5peGIHOA3GwTtaJnXcMC-16" value="" style="html=1;points=[[0,0,0,0,5],[0,1,0,0,-5],[1,0,0,0,5],[1,1,0,0,-5]];perimeter=orthogonalPerimeter;outlineConnect=0;targetShapes=umlLifeline;portConstraint=eastwest;newEdgeStyle={&quot;curved&quot;:0,&quot;rounded&quot;:0};" vertex="1" parent="5peGIHOA3GwTtaJnXcMC-15">
          <mxGeometry x="45" y="180" width="10" height="60" as="geometry" />
        </mxCell>
        <mxCell id="5peGIHOA3GwTtaJnXcMC-65" value="" style="html=1;points=[[0,0,0,0,5],[0,1,0,0,-5],[1,0,0,0,5],[1,1,0,0,-5]];perimeter=orthogonalPerimeter;outlineConnect=0;targetShapes=umlLifeline;portConstraint=eastwest;newEdgeStyle={&quot;curved&quot;:0,&quot;rounded&quot;:0};" vertex="1" parent="5peGIHOA3GwTtaJnXcMC-15">
          <mxGeometry x="45" y="500" width="10" height="160" as="geometry" />
        </mxCell>
        <mxCell id="5peGIHOA3GwTtaJnXcMC-98" value="" style="html=1;points=[[0,0,0,0,5],[0,1,0,0,-5],[1,0,0,0,5],[1,1,0,0,-5]];perimeter=orthogonalPerimeter;outlineConnect=0;targetShapes=umlLifeline;portConstraint=eastwest;newEdgeStyle={&quot;curved&quot;:0,&quot;rounded&quot;:0};" vertex="1" parent="5peGIHOA3GwTtaJnXcMC-15">
          <mxGeometry x="45" y="835" width="10" height="50" as="geometry" />
        </mxCell>
        <mxCell id="5peGIHOA3GwTtaJnXcMC-17" value="" style="html=1;verticalAlign=bottom;labelBackgroundColor=none;endArrow=block;endFill=1;rounded=0;" edge="1" parent="1">
          <mxGeometry width="160" relative="1" as="geometry">
            <mxPoint x="325" y="880" as="sourcePoint" />
            <mxPoint x="115" y="880" as="targetPoint" />
          </mxGeometry>
        </mxCell>
        <mxCell id="5peGIHOA3GwTtaJnXcMC-18" value="Display faculty form" style="edgeLabel;html=1;align=center;verticalAlign=middle;resizable=0;points=[];" vertex="1" connectable="0" parent="5peGIHOA3GwTtaJnXcMC-17">
          <mxGeometry x="0.2076" y="-2" relative="1" as="geometry">
            <mxPoint x="22" as="offset" />
          </mxGeometry>
        </mxCell>
        <mxCell id="5peGIHOA3GwTtaJnXcMC-19" style="edgeStyle=orthogonalEdgeStyle;rounded=0;orthogonalLoop=1;jettySize=auto;html=1;curved=0;exitX=1;exitY=0;exitDx=0;exitDy=5;exitPerimeter=0;entryX=0;entryY=0;entryDx=0;entryDy=5;entryPerimeter=0;" edge="1" parent="1">
          <mxGeometry relative="1" as="geometry">
            <mxPoint x="115" y="920" as="sourcePoint" />
            <mxPoint x="325" y="920" as="targetPoint" />
          </mxGeometry>
        </mxCell>
        <mxCell id="5peGIHOA3GwTtaJnXcMC-20" value="Enter faculty information and&amp;nbsp;&lt;br&gt;credentials" style="edgeLabel;html=1;align=center;verticalAlign=middle;resizable=0;points=[];" vertex="1" connectable="0" parent="5peGIHOA3GwTtaJnXcMC-19">
          <mxGeometry x="-0.1905" relative="1" as="geometry">
            <mxPoint x="20" as="offset" />
          </mxGeometry>
        </mxCell>
        <mxCell id="5peGIHOA3GwTtaJnXcMC-21" style="edgeStyle=orthogonalEdgeStyle;rounded=0;orthogonalLoop=1;jettySize=auto;html=1;curved=0;" edge="1" parent="1">
          <mxGeometry relative="1" as="geometry">
            <mxPoint x="335" y="960" as="sourcePoint" />
            <mxPoint x="545" y="960" as="targetPoint" />
            <Array as="points">
              <mxPoint x="540" y="960" />
              <mxPoint x="540" y="960" />
            </Array>
          </mxGeometry>
        </mxCell>
        <mxCell id="5peGIHOA3GwTtaJnXcMC-22" value="Insert faculty information&lt;br&gt;and credentials" style="edgeLabel;html=1;align=center;verticalAlign=middle;resizable=0;points=[];" vertex="1" connectable="0" parent="5peGIHOA3GwTtaJnXcMC-21">
          <mxGeometry x="-0.1905" relative="1" as="geometry">
            <mxPoint x="19" as="offset" />
          </mxGeometry>
        </mxCell>
        <mxCell id="5peGIHOA3GwTtaJnXcMC-24" value="" style="html=1;verticalAlign=bottom;labelBackgroundColor=none;endArrow=block;endFill=1;dashed=1;rounded=0;" edge="1" parent="1" target="5peGIHOA3GwTtaJnXcMC-12">
          <mxGeometry width="160" relative="1" as="geometry">
            <mxPoint x="540" y="1000" as="sourcePoint" />
            <mxPoint x="340" y="1000" as="targetPoint" />
            <Array as="points">
              <mxPoint x="435" y="1000" />
            </Array>
          </mxGeometry>
        </mxCell>
        <mxCell id="5peGIHOA3GwTtaJnXcMC-25" value="Confirm insertion" style="edgeLabel;html=1;align=center;verticalAlign=middle;resizable=0;points=[];" vertex="1" connectable="0" parent="5peGIHOA3GwTtaJnXcMC-24">
          <mxGeometry x="0.397" y="-1" relative="1" as="geometry">
            <mxPoint x="41" as="offset" />
          </mxGeometry>
        </mxCell>
        <mxCell id="5peGIHOA3GwTtaJnXcMC-26" value="" style="html=1;verticalAlign=bottom;labelBackgroundColor=none;endArrow=block;endFill=1;dashed=1;rounded=0;" edge="1" parent="1">
          <mxGeometry width="160" relative="1" as="geometry">
            <mxPoint x="320" y="1040" as="sourcePoint" />
            <mxPoint x="115" y="1040" as="targetPoint" />
            <Array as="points">
              <mxPoint x="220" y="1040" />
            </Array>
          </mxGeometry>
        </mxCell>
        <mxCell id="5peGIHOA3GwTtaJnXcMC-27" value="Display successful message" style="edgeLabel;html=1;align=center;verticalAlign=middle;resizable=0;points=[];" vertex="1" connectable="0" parent="5peGIHOA3GwTtaJnXcMC-26">
          <mxGeometry x="0.397" y="-1" relative="1" as="geometry">
            <mxPoint x="41" as="offset" />
          </mxGeometry>
        </mxCell>
        <mxCell id="5peGIHOA3GwTtaJnXcMC-63" style="edgeStyle=orthogonalEdgeStyle;rounded=0;orthogonalLoop=1;jettySize=auto;html=1;curved=0;exitX=1;exitY=0;exitDx=0;exitDy=5;exitPerimeter=0;entryX=0;entryY=0;entryDx=0;entryDy=5;entryPerimeter=0;" edge="1" parent="1">
          <mxGeometry relative="1" as="geometry">
            <mxPoint x="115" y="1110" as="sourcePoint" />
            <mxPoint x="324.9999999999998" y="1109.9999999999998" as="targetPoint" />
          </mxGeometry>
        </mxCell>
        <mxCell id="5peGIHOA3GwTtaJnXcMC-64" value="Press schedule button" style="edgeLabel;html=1;align=center;verticalAlign=middle;resizable=0;points=[];" vertex="1" connectable="0" parent="5peGIHOA3GwTtaJnXcMC-63">
          <mxGeometry x="-0.1905" relative="1" as="geometry">
            <mxPoint x="10" y="-5" as="offset" />
          </mxGeometry>
        </mxCell>
        <mxCell id="5peGIHOA3GwTtaJnXcMC-66" value="" style="html=1;verticalAlign=bottom;labelBackgroundColor=none;endArrow=block;endFill=1;rounded=0;" edge="1" parent="1">
          <mxGeometry width="160" relative="1" as="geometry">
            <mxPoint x="325" y="1140" as="sourcePoint" />
            <mxPoint x="115" y="1140" as="targetPoint" />
          </mxGeometry>
        </mxCell>
        <mxCell id="5peGIHOA3GwTtaJnXcMC-67" value="Display tabulated rooms" style="edgeLabel;html=1;align=center;verticalAlign=middle;resizable=0;points=[];" vertex="1" connectable="0" parent="5peGIHOA3GwTtaJnXcMC-66">
          <mxGeometry x="0.2076" y="-2" relative="1" as="geometry">
            <mxPoint x="22" as="offset" />
          </mxGeometry>
        </mxCell>
        <mxCell id="5peGIHOA3GwTtaJnXcMC-68" style="edgeStyle=orthogonalEdgeStyle;rounded=0;orthogonalLoop=1;jettySize=auto;html=1;curved=0;exitX=1;exitY=0;exitDx=0;exitDy=5;exitPerimeter=0;entryX=0;entryY=0;entryDx=0;entryDy=5;entryPerimeter=0;" edge="1" parent="1">
          <mxGeometry relative="1" as="geometry">
            <mxPoint x="115" y="1170" as="sourcePoint" />
            <mxPoint x="325" y="1170" as="targetPoint" />
          </mxGeometry>
        </mxCell>
        <mxCell id="5peGIHOA3GwTtaJnXcMC-69" value="Press a room" style="edgeLabel;html=1;align=center;verticalAlign=middle;resizable=0;points=[];" vertex="1" connectable="0" parent="5peGIHOA3GwTtaJnXcMC-68">
          <mxGeometry x="-0.1905" relative="1" as="geometry">
            <mxPoint x="10" as="offset" />
          </mxGeometry>
        </mxCell>
        <mxCell id="5peGIHOA3GwTtaJnXcMC-70" style="edgeStyle=orthogonalEdgeStyle;rounded=0;orthogonalLoop=1;jettySize=auto;html=1;curved=0;" edge="1" parent="1">
          <mxGeometry relative="1" as="geometry">
            <mxPoint x="335" y="1274.06" as="sourcePoint" />
            <mxPoint x="544.9999999999998" y="1274.0011764705882" as="targetPoint" />
            <Array as="points">
              <mxPoint x="540" y="1274.06" />
              <mxPoint x="540" y="1274.06" />
            </Array>
          </mxGeometry>
        </mxCell>
        <mxCell id="5peGIHOA3GwTtaJnXcMC-71" value="Insert room schedule" style="edgeLabel;html=1;align=center;verticalAlign=middle;resizable=0;points=[];" vertex="1" connectable="0" parent="5peGIHOA3GwTtaJnXcMC-70">
          <mxGeometry x="-0.1905" relative="1" as="geometry">
            <mxPoint x="19" as="offset" />
          </mxGeometry>
        </mxCell>
        <mxCell id="5peGIHOA3GwTtaJnXcMC-77" value="" style="html=1;verticalAlign=bottom;labelBackgroundColor=none;endArrow=block;endFill=1;rounded=0;" edge="1" parent="1">
          <mxGeometry width="160" relative="1" as="geometry">
            <mxPoint x="320" y="1200" as="sourcePoint" />
            <mxPoint x="115" y="1200" as="targetPoint" />
          </mxGeometry>
        </mxCell>
        <mxCell id="5peGIHOA3GwTtaJnXcMC-78" value="Display schedule form" style="edgeLabel;html=1;align=center;verticalAlign=middle;resizable=0;points=[];" vertex="1" connectable="0" parent="5peGIHOA3GwTtaJnXcMC-77">
          <mxGeometry x="0.2076" y="-2" relative="1" as="geometry">
            <mxPoint x="24" y="2" as="offset" />
          </mxGeometry>
        </mxCell>
        <mxCell id="5peGIHOA3GwTtaJnXcMC-79" style="edgeStyle=orthogonalEdgeStyle;rounded=0;orthogonalLoop=1;jettySize=auto;html=1;curved=0;exitX=1;exitY=0;exitDx=0;exitDy=5;exitPerimeter=0;" edge="1" parent="1">
          <mxGeometry relative="1" as="geometry">
            <mxPoint x="120" y="1240" as="sourcePoint" />
            <mxPoint x="320.57971014492756" y="1240" as="targetPoint" />
          </mxGeometry>
        </mxCell>
        <mxCell id="5peGIHOA3GwTtaJnXcMC-80" value="Enter room schedule&amp;nbsp;&lt;br&gt;details" style="edgeLabel;html=1;align=center;verticalAlign=middle;resizable=0;points=[];" vertex="1" connectable="0" parent="5peGIHOA3GwTtaJnXcMC-79">
          <mxGeometry x="-0.1905" relative="1" as="geometry">
            <mxPoint x="10" as="offset" />
          </mxGeometry>
        </mxCell>
        <mxCell id="5peGIHOA3GwTtaJnXcMC-81" value="alt" style="shape=umlFrame;whiteSpace=wrap;html=1;pointerEvents=0;recursiveResize=0;container=1;collapsible=0;width=80;height=30;" vertex="1" parent="1">
          <mxGeometry y="1300" width="620" height="170" as="geometry" />
        </mxCell>
        <mxCell id="5peGIHOA3GwTtaJnXcMC-82" value="[if no confilct]" style="text;html=1;" vertex="1" parent="5peGIHOA3GwTtaJnXcMC-81">
          <mxGeometry width="100" height="20" relative="1" as="geometry">
            <mxPoint x="20" y="40" as="offset" />
          </mxGeometry>
        </mxCell>
        <mxCell id="5peGIHOA3GwTtaJnXcMC-83" value="[else]" style="line;strokeWidth=1;dashed=1;labelPosition=center;verticalLabelPosition=bottom;align=left;verticalAlign=top;spacingLeft=20;spacingTop=15;html=1;whiteSpace=wrap;" vertex="1" parent="5peGIHOA3GwTtaJnXcMC-81">
          <mxGeometry y="60" width="620" height="55" as="geometry" />
        </mxCell>
        <mxCell id="5peGIHOA3GwTtaJnXcMC-72" value="" style="html=1;verticalAlign=bottom;labelBackgroundColor=none;endArrow=block;endFill=1;dashed=1;rounded=0;" edge="1" parent="5peGIHOA3GwTtaJnXcMC-81">
          <mxGeometry width="160" relative="1" as="geometry">
            <mxPoint x="545" y="24.66" as="sourcePoint" />
            <mxPoint x="335" y="24.66" as="targetPoint" />
            <Array as="points">
              <mxPoint x="440" y="24.66" />
            </Array>
          </mxGeometry>
        </mxCell>
        <mxCell id="5peGIHOA3GwTtaJnXcMC-73" value="Confirm insertion" style="edgeLabel;html=1;align=center;verticalAlign=middle;resizable=0;points=[];" vertex="1" connectable="0" parent="5peGIHOA3GwTtaJnXcMC-72">
          <mxGeometry x="0.397" y="-1" relative="1" as="geometry">
            <mxPoint x="41" as="offset" />
          </mxGeometry>
        </mxCell>
        <mxCell id="5peGIHOA3GwTtaJnXcMC-86" value="" style="html=1;verticalAlign=bottom;labelBackgroundColor=none;endArrow=block;endFill=1;dashed=1;rounded=0;" edge="1" parent="5peGIHOA3GwTtaJnXcMC-81">
          <mxGeometry width="160" relative="1" as="geometry">
            <mxPoint x="545" y="120" as="sourcePoint" />
            <mxPoint x="340" y="120" as="targetPoint" />
            <Array as="points">
              <mxPoint x="440" y="120" />
            </Array>
          </mxGeometry>
        </mxCell>
        <mxCell id="5peGIHOA3GwTtaJnXcMC-87" value="Cancel insertion" style="edgeLabel;html=1;align=center;verticalAlign=middle;resizable=0;points=[];" vertex="1" connectable="0" parent="5peGIHOA3GwTtaJnXcMC-86">
          <mxGeometry x="0.397" y="-1" relative="1" as="geometry">
            <mxPoint x="41" as="offset" />
          </mxGeometry>
        </mxCell>
        <mxCell id="5peGIHOA3GwTtaJnXcMC-74" value="" style="html=1;verticalAlign=bottom;labelBackgroundColor=none;endArrow=block;endFill=1;dashed=1;rounded=0;" edge="1" parent="5peGIHOA3GwTtaJnXcMC-81">
          <mxGeometry width="160" relative="1" as="geometry">
            <mxPoint x="320" y="60" as="sourcePoint" />
            <mxPoint x="115" y="60" as="targetPoint" />
            <Array as="points">
              <mxPoint x="220" y="60" />
            </Array>
          </mxGeometry>
        </mxCell>
        <mxCell id="5peGIHOA3GwTtaJnXcMC-75" value="Display successful message" style="edgeLabel;html=1;align=center;verticalAlign=middle;resizable=0;points=[];" vertex="1" connectable="0" parent="5peGIHOA3GwTtaJnXcMC-74">
          <mxGeometry x="0.397" y="-1" relative="1" as="geometry">
            <mxPoint x="41" as="offset" />
          </mxGeometry>
        </mxCell>
        <mxCell id="5peGIHOA3GwTtaJnXcMC-90" value="" style="html=1;verticalAlign=bottom;labelBackgroundColor=none;endArrow=block;endFill=1;dashed=1;rounded=0;" edge="1" parent="5peGIHOA3GwTtaJnXcMC-81">
          <mxGeometry width="160" relative="1" as="geometry">
            <mxPoint x="320" y="150" as="sourcePoint" />
            <mxPoint x="115" y="150" as="targetPoint" />
            <Array as="points">
              <mxPoint x="220" y="150" />
            </Array>
          </mxGeometry>
        </mxCell>
        <mxCell id="5peGIHOA3GwTtaJnXcMC-91" value="Display error message" style="edgeLabel;html=1;align=center;verticalAlign=middle;resizable=0;points=[];" vertex="1" connectable="0" parent="5peGIHOA3GwTtaJnXcMC-90">
          <mxGeometry x="0.397" y="-1" relative="1" as="geometry">
            <mxPoint x="41" as="offset" />
          </mxGeometry>
        </mxCell>
        <mxCell id="5peGIHOA3GwTtaJnXcMC-172" value="[if no confilct]" style="text;html=1;" vertex="1" parent="5peGIHOA3GwTtaJnXcMC-81">
          <mxGeometry width="100" height="20" relative="1" as="geometry">
            <mxPoint x="30" y="1250" as="offset" />
          </mxGeometry>
        </mxCell>
        <mxCell id="5peGIHOA3GwTtaJnXcMC-173" value="" style="html=1;verticalAlign=bottom;labelBackgroundColor=none;endArrow=block;endFill=1;dashed=1;rounded=0;" edge="1" parent="5peGIHOA3GwTtaJnXcMC-81">
          <mxGeometry width="160" relative="1" as="geometry">
            <mxPoint x="555" y="1234.66" as="sourcePoint" />
            <mxPoint x="345" y="1234.66" as="targetPoint" />
            <Array as="points">
              <mxPoint x="450" y="1234.66" />
            </Array>
          </mxGeometry>
        </mxCell>
        <mxCell id="5peGIHOA3GwTtaJnXcMC-174" value="Confirm insertion" style="edgeLabel;html=1;align=center;verticalAlign=middle;resizable=0;points=[];" vertex="1" connectable="0" parent="5peGIHOA3GwTtaJnXcMC-173">
          <mxGeometry x="0.397" y="-1" relative="1" as="geometry">
            <mxPoint x="41" as="offset" />
          </mxGeometry>
        </mxCell>
        <mxCell id="5peGIHOA3GwTtaJnXcMC-175" value="" style="html=1;verticalAlign=bottom;labelBackgroundColor=none;endArrow=block;endFill=1;dashed=1;rounded=0;" edge="1" parent="5peGIHOA3GwTtaJnXcMC-81">
          <mxGeometry width="160" relative="1" as="geometry">
            <mxPoint x="555" y="1330" as="sourcePoint" />
            <mxPoint x="350" y="1330" as="targetPoint" />
            <Array as="points">
              <mxPoint x="450" y="1330" />
            </Array>
          </mxGeometry>
        </mxCell>
        <mxCell id="5peGIHOA3GwTtaJnXcMC-176" value="Cancel insertion" style="edgeLabel;html=1;align=center;verticalAlign=middle;resizable=0;points=[];" vertex="1" connectable="0" parent="5peGIHOA3GwTtaJnXcMC-175">
          <mxGeometry x="0.397" y="-1" relative="1" as="geometry">
            <mxPoint x="41" as="offset" />
          </mxGeometry>
        </mxCell>
        <mxCell id="5peGIHOA3GwTtaJnXcMC-177" value="" style="html=1;verticalAlign=bottom;labelBackgroundColor=none;endArrow=block;endFill=1;dashed=1;rounded=0;" edge="1" parent="5peGIHOA3GwTtaJnXcMC-81">
          <mxGeometry width="160" relative="1" as="geometry">
            <mxPoint x="330" y="1270" as="sourcePoint" />
            <mxPoint x="125" y="1270" as="targetPoint" />
            <Array as="points">
              <mxPoint x="230" y="1270" />
            </Array>
          </mxGeometry>
        </mxCell>
        <mxCell id="5peGIHOA3GwTtaJnXcMC-178" value="Display successful message" style="edgeLabel;html=1;align=center;verticalAlign=middle;resizable=0;points=[];" vertex="1" connectable="0" parent="5peGIHOA3GwTtaJnXcMC-177">
          <mxGeometry x="0.397" y="-1" relative="1" as="geometry">
            <mxPoint x="41" as="offset" />
          </mxGeometry>
        </mxCell>
        <mxCell id="5peGIHOA3GwTtaJnXcMC-179" value="" style="html=1;verticalAlign=bottom;labelBackgroundColor=none;endArrow=block;endFill=1;dashed=1;rounded=0;" edge="1" parent="5peGIHOA3GwTtaJnXcMC-81">
          <mxGeometry width="160" relative="1" as="geometry">
            <mxPoint x="330" y="1360" as="sourcePoint" />
            <mxPoint x="125" y="1360" as="targetPoint" />
            <Array as="points">
              <mxPoint x="230" y="1360" />
            </Array>
          </mxGeometry>
        </mxCell>
        <mxCell id="5peGIHOA3GwTtaJnXcMC-180" value="Display error message" style="edgeLabel;html=1;align=center;verticalAlign=middle;resizable=0;points=[];" vertex="1" connectable="0" parent="5peGIHOA3GwTtaJnXcMC-179">
          <mxGeometry x="0.397" y="-1" relative="1" as="geometry">
            <mxPoint x="41" as="offset" />
          </mxGeometry>
        </mxCell>
        <mxCell id="5peGIHOA3GwTtaJnXcMC-96" style="edgeStyle=orthogonalEdgeStyle;rounded=0;orthogonalLoop=1;jettySize=auto;html=1;curved=0;exitX=1;exitY=0;exitDx=0;exitDy=5;exitPerimeter=0;entryX=0;entryY=0;entryDx=0;entryDy=5;entryPerimeter=0;" edge="1" target="5peGIHOA3GwTtaJnXcMC-95" parent="1">
          <mxGeometry relative="1" as="geometry">
            <mxPoint x="115" y="1520" as="sourcePoint" />
          </mxGeometry>
        </mxCell>
        <mxCell id="5peGIHOA3GwTtaJnXcMC-97" value="Press room assigment button" style="edgeLabel;html=1;align=center;verticalAlign=middle;resizable=0;points=[];" vertex="1" connectable="0" parent="5peGIHOA3GwTtaJnXcMC-96">
          <mxGeometry x="-0.1905" relative="1" as="geometry">
            <mxPoint x="20" y="-5" as="offset" />
          </mxGeometry>
        </mxCell>
        <mxCell id="5peGIHOA3GwTtaJnXcMC-99" value="" style="html=1;verticalAlign=bottom;labelBackgroundColor=none;endArrow=block;endFill=1;rounded=0;" edge="1" parent="1" source="5peGIHOA3GwTtaJnXcMC-196">
          <mxGeometry width="160" relative="1" as="geometry">
            <mxPoint x="325" y="1665" as="sourcePoint" />
            <mxPoint x="115" y="1665" as="targetPoint" />
          </mxGeometry>
        </mxCell>
        <mxCell id="5peGIHOA3GwTtaJnXcMC-100" value="Display room details" style="edgeLabel;html=1;align=center;verticalAlign=middle;resizable=0;points=[];" vertex="1" connectable="0" parent="5peGIHOA3GwTtaJnXcMC-99">
          <mxGeometry x="0.2076" y="-2" relative="1" as="geometry">
            <mxPoint x="105" y="2" as="offset" />
          </mxGeometry>
        </mxCell>
        <mxCell id="5peGIHOA3GwTtaJnXcMC-103" style="edgeStyle=orthogonalEdgeStyle;rounded=0;orthogonalLoop=1;jettySize=auto;html=1;curved=0;" edge="1" parent="1">
          <mxGeometry relative="1" as="geometry">
            <mxPoint x="335" y="1619.57" as="sourcePoint" />
            <mxPoint x="545" y="1619.57" as="targetPoint" />
            <Array as="points">
              <mxPoint x="540" y="1619.57" />
              <mxPoint x="540" y="1619.57" />
            </Array>
          </mxGeometry>
        </mxCell>
        <mxCell id="5peGIHOA3GwTtaJnXcMC-104" value="Get room schedules" style="edgeLabel;html=1;align=center;verticalAlign=middle;resizable=0;points=[];" vertex="1" connectable="0" parent="5peGIHOA3GwTtaJnXcMC-103">
          <mxGeometry x="-0.1905" relative="1" as="geometry">
            <mxPoint x="20" as="offset" />
          </mxGeometry>
        </mxCell>
        <mxCell id="5peGIHOA3GwTtaJnXcMC-111" value="" style="html=1;verticalAlign=bottom;labelBackgroundColor=none;endArrow=block;endFill=1;dashed=1;rounded=0;" edge="1" parent="1">
          <mxGeometry width="160" relative="1" as="geometry">
            <mxPoint x="545" y="1649.57" as="sourcePoint" />
            <mxPoint x="340" y="1649.57" as="targetPoint" />
            <Array as="points">
              <mxPoint x="440" y="1649.57" />
            </Array>
          </mxGeometry>
        </mxCell>
        <mxCell id="5peGIHOA3GwTtaJnXcMC-112" value="Return room schdeules" style="edgeLabel;html=1;align=center;verticalAlign=middle;resizable=0;points=[];" vertex="1" connectable="0" parent="5peGIHOA3GwTtaJnXcMC-111">
          <mxGeometry x="0.397" y="-1" relative="1" as="geometry">
            <mxPoint x="41" as="offset" />
          </mxGeometry>
        </mxCell>
        <mxCell id="5peGIHOA3GwTtaJnXcMC-113" value="" style="html=1;verticalAlign=bottom;labelBackgroundColor=none;endArrow=block;endFill=1;rounded=0;" edge="1" parent="1">
          <mxGeometry width="160" relative="1" as="geometry">
            <mxPoint x="325" y="1555" as="sourcePoint" />
            <mxPoint x="115" y="1555" as="targetPoint" />
          </mxGeometry>
        </mxCell>
        <mxCell id="5peGIHOA3GwTtaJnXcMC-114" value="Display floorplan of rooms" style="edgeLabel;html=1;align=center;verticalAlign=middle;resizable=0;points=[];" vertex="1" connectable="0" parent="5peGIHOA3GwTtaJnXcMC-113">
          <mxGeometry x="0.2076" y="-2" relative="1" as="geometry">
            <mxPoint x="22" as="offset" />
          </mxGeometry>
        </mxCell>
        <mxCell id="5peGIHOA3GwTtaJnXcMC-116" style="edgeStyle=orthogonalEdgeStyle;rounded=0;orthogonalLoop=1;jettySize=auto;html=1;curved=0;exitX=1;exitY=0;exitDx=0;exitDy=5;exitPerimeter=0;entryX=0;entryY=0;entryDx=0;entryDy=5;entryPerimeter=0;" edge="1" parent="1">
          <mxGeometry relative="1" as="geometry">
            <mxPoint x="115" y="1595" as="sourcePoint" />
            <mxPoint x="325" y="1595" as="targetPoint" />
          </mxGeometry>
        </mxCell>
        <mxCell id="5peGIHOA3GwTtaJnXcMC-117" value="Press a room" style="edgeLabel;html=1;align=center;verticalAlign=middle;resizable=0;points=[];" vertex="1" connectable="0" parent="5peGIHOA3GwTtaJnXcMC-116">
          <mxGeometry x="-0.1905" relative="1" as="geometry">
            <mxPoint x="20" y="-5" as="offset" />
          </mxGeometry>
        </mxCell>
        <mxCell id="5peGIHOA3GwTtaJnXcMC-118" value="Sequence Diagram for Login Use case" style="text;strokeColor=none;align=center;fillColor=none;html=1;verticalAlign=middle;whiteSpace=wrap;rounded=0;" vertex="1" parent="1">
          <mxGeometry x="30" y="110" width="240" height="30" as="geometry" />
        </mxCell>
        <mxCell id="5peGIHOA3GwTtaJnXcMC-119" value="Sequence Diagram for Load System Data Use case" style="text;strokeColor=none;align=center;fillColor=none;html=1;verticalAlign=middle;whiteSpace=wrap;rounded=0;" vertex="1" parent="1">
          <mxGeometry x="20" y="630" width="240" height="30" as="geometry" />
        </mxCell>
        <mxCell id="5peGIHOA3GwTtaJnXcMC-137" value="Secretary" style="shape=umlLifeline;perimeter=lifelinePerimeter;whiteSpace=wrap;html=1;container=1;dropTarget=0;collapsible=0;recursiveResize=0;outlineConnect=0;portConstraint=eastwest;newEdgeStyle={&quot;edgeStyle&quot;:&quot;elbowEdgeStyle&quot;,&quot;elbow&quot;:&quot;vertical&quot;,&quot;curved&quot;:0,&quot;rounded&quot;:0};" vertex="1" parent="1">
          <mxGeometry x="70" y="1980" width="100" height="930" as="geometry" />
        </mxCell>
        <mxCell id="5peGIHOA3GwTtaJnXcMC-138" value="" style="html=1;points=[[0,0,0,0,5],[0,1,0,0,-5],[1,0,0,0,5],[1,1,0,0,-5]];perimeter=orthogonalPerimeter;outlineConnect=0;targetShapes=umlLifeline;portConstraint=eastwest;newEdgeStyle={&quot;curved&quot;:0,&quot;rounded&quot;:0};" vertex="1" parent="5peGIHOA3GwTtaJnXcMC-137">
          <mxGeometry x="45" y="70" width="10" height="220" as="geometry" />
        </mxCell>
        <mxCell id="5peGIHOA3GwTtaJnXcMC-194" value="" style="html=1;points=[[0,0,0,0,5],[0,1,0,0,-5],[1,0,0,0,5],[1,1,0,0,-5]];perimeter=orthogonalPerimeter;outlineConnect=0;targetShapes=umlLifeline;portConstraint=eastwest;newEdgeStyle={&quot;curved&quot;:0,&quot;rounded&quot;:0};" vertex="1" parent="5peGIHOA3GwTtaJnXcMC-137">
          <mxGeometry x="45" y="330" width="10" height="360" as="geometry" />
        </mxCell>
        <mxCell id="5peGIHOA3GwTtaJnXcMC-139" value="System" style="shape=umlLifeline;perimeter=lifelinePerimeter;whiteSpace=wrap;html=1;container=1;dropTarget=0;collapsible=0;recursiveResize=0;outlineConnect=0;portConstraint=eastwest;newEdgeStyle={&quot;edgeStyle&quot;:&quot;elbowEdgeStyle&quot;,&quot;elbow&quot;:&quot;vertical&quot;,&quot;curved&quot;:0,&quot;rounded&quot;:0};" vertex="1" parent="1">
          <mxGeometry x="290" y="1980" width="100" height="930" as="geometry" />
        </mxCell>
        <mxCell id="5peGIHOA3GwTtaJnXcMC-140" value="" style="html=1;points=[[0,0,0,0,5],[0,1,0,0,-5],[1,0,0,0,5],[1,1,0,0,-5]];perimeter=orthogonalPerimeter;outlineConnect=0;targetShapes=umlLifeline;portConstraint=eastwest;newEdgeStyle={&quot;curved&quot;:0,&quot;rounded&quot;:0};" vertex="1" parent="5peGIHOA3GwTtaJnXcMC-139">
          <mxGeometry x="45" y="70" width="10" height="220" as="geometry" />
        </mxCell>
        <mxCell id="5peGIHOA3GwTtaJnXcMC-141" value="" style="html=1;points=[[0,0,0,0,5],[0,1,0,0,-5],[1,0,0,0,5],[1,1,0,0,-5]];perimeter=orthogonalPerimeter;outlineConnect=0;targetShapes=umlLifeline;portConstraint=eastwest;newEdgeStyle={&quot;curved&quot;:0,&quot;rounded&quot;:0};" vertex="1" parent="5peGIHOA3GwTtaJnXcMC-139">
          <mxGeometry x="45" y="330" width="10" height="350" as="geometry" />
        </mxCell>
        <mxCell id="5peGIHOA3GwTtaJnXcMC-142" value="" style="html=1;points=[[0,0,0,0,5],[0,1,0,0,-5],[1,0,0,0,5],[1,1,0,0,-5]];perimeter=orthogonalPerimeter;outlineConnect=0;targetShapes=umlLifeline;portConstraint=eastwest;newEdgeStyle={&quot;curved&quot;:0,&quot;rounded&quot;:0};" vertex="1" parent="5peGIHOA3GwTtaJnXcMC-139">
          <mxGeometry x="45" y="745" width="10" height="175" as="geometry" />
        </mxCell>
        <mxCell id="5peGIHOA3GwTtaJnXcMC-143" value="" style="shape=umlActor;verticalLabelPosition=bottom;verticalAlign=top;html=1;outlineConnect=0;" vertex="1" parent="1">
          <mxGeometry x="105" y="1910" width="30" height="60" as="geometry" />
        </mxCell>
        <mxCell id="5peGIHOA3GwTtaJnXcMC-144" style="edgeStyle=orthogonalEdgeStyle;rounded=0;orthogonalLoop=1;jettySize=auto;html=1;curved=0;exitX=1;exitY=0;exitDx=0;exitDy=5;exitPerimeter=0;entryX=0;entryY=0;entryDx=0;entryDy=5;entryPerimeter=0;" edge="1" source="5peGIHOA3GwTtaJnXcMC-138" target="5peGIHOA3GwTtaJnXcMC-140" parent="1">
          <mxGeometry relative="1" as="geometry" />
        </mxCell>
        <mxCell id="5peGIHOA3GwTtaJnXcMC-145" value="Press faculty button" style="edgeLabel;html=1;align=center;verticalAlign=middle;resizable=0;points=[];" vertex="1" connectable="0" parent="5peGIHOA3GwTtaJnXcMC-144">
          <mxGeometry x="-0.1905" relative="1" as="geometry">
            <mxPoint x="10" y="-5" as="offset" />
          </mxGeometry>
        </mxCell>
        <mxCell id="5peGIHOA3GwTtaJnXcMC-146" value="Database" style="shape=umlLifeline;perimeter=lifelinePerimeter;whiteSpace=wrap;html=1;container=1;dropTarget=0;collapsible=0;recursiveResize=0;outlineConnect=0;portConstraint=eastwest;newEdgeStyle={&quot;edgeStyle&quot;:&quot;elbowEdgeStyle&quot;,&quot;elbow&quot;:&quot;vertical&quot;,&quot;curved&quot;:0,&quot;rounded&quot;:0};" vertex="1" parent="1">
          <mxGeometry x="510" y="1980" width="100" height="930" as="geometry" />
        </mxCell>
        <mxCell id="5peGIHOA3GwTtaJnXcMC-147" value="" style="html=1;points=[[0,0,0,0,5],[0,1,0,0,-5],[1,0,0,0,5],[1,1,0,0,-5]];perimeter=orthogonalPerimeter;outlineConnect=0;targetShapes=umlLifeline;portConstraint=eastwest;newEdgeStyle={&quot;curved&quot;:0,&quot;rounded&quot;:0};" vertex="1" parent="5peGIHOA3GwTtaJnXcMC-146">
          <mxGeometry x="45" y="180" width="10" height="60" as="geometry" />
        </mxCell>
        <mxCell id="5peGIHOA3GwTtaJnXcMC-148" value="" style="html=1;points=[[0,0,0,0,5],[0,1,0,0,-5],[1,0,0,0,5],[1,1,0,0,-5]];perimeter=orthogonalPerimeter;outlineConnect=0;targetShapes=umlLifeline;portConstraint=eastwest;newEdgeStyle={&quot;curved&quot;:0,&quot;rounded&quot;:0};" vertex="1" parent="5peGIHOA3GwTtaJnXcMC-146">
          <mxGeometry x="45" y="500" width="10" height="160" as="geometry" />
        </mxCell>
        <mxCell id="5peGIHOA3GwTtaJnXcMC-149" value="" style="html=1;points=[[0,0,0,0,5],[0,1,0,0,-5],[1,0,0,0,5],[1,1,0,0,-5]];perimeter=orthogonalPerimeter;outlineConnect=0;targetShapes=umlLifeline;portConstraint=eastwest;newEdgeStyle={&quot;curved&quot;:0,&quot;rounded&quot;:0};" vertex="1" parent="5peGIHOA3GwTtaJnXcMC-146">
          <mxGeometry x="45" y="835" width="10" height="50" as="geometry" />
        </mxCell>
        <mxCell id="5peGIHOA3GwTtaJnXcMC-150" value="" style="html=1;verticalAlign=bottom;labelBackgroundColor=none;endArrow=block;endFill=1;rounded=0;" edge="1" parent="1">
          <mxGeometry width="160" relative="1" as="geometry">
            <mxPoint x="335" y="2090" as="sourcePoint" />
            <mxPoint x="125" y="2090" as="targetPoint" />
          </mxGeometry>
        </mxCell>
        <mxCell id="5peGIHOA3GwTtaJnXcMC-151" value="Display faculty form" style="edgeLabel;html=1;align=center;verticalAlign=middle;resizable=0;points=[];" vertex="1" connectable="0" parent="5peGIHOA3GwTtaJnXcMC-150">
          <mxGeometry x="0.2076" y="-2" relative="1" as="geometry">
            <mxPoint x="22" as="offset" />
          </mxGeometry>
        </mxCell>
        <mxCell id="5peGIHOA3GwTtaJnXcMC-152" style="edgeStyle=orthogonalEdgeStyle;rounded=0;orthogonalLoop=1;jettySize=auto;html=1;curved=0;exitX=1;exitY=0;exitDx=0;exitDy=5;exitPerimeter=0;entryX=0;entryY=0;entryDx=0;entryDy=5;entryPerimeter=0;" edge="1" parent="1">
          <mxGeometry relative="1" as="geometry">
            <mxPoint x="125" y="2130" as="sourcePoint" />
            <mxPoint x="335" y="2130" as="targetPoint" />
          </mxGeometry>
        </mxCell>
        <mxCell id="5peGIHOA3GwTtaJnXcMC-153" value="Enter faculty information and&amp;nbsp;&lt;br&gt;credentials" style="edgeLabel;html=1;align=center;verticalAlign=middle;resizable=0;points=[];" vertex="1" connectable="0" parent="5peGIHOA3GwTtaJnXcMC-152">
          <mxGeometry x="-0.1905" relative="1" as="geometry">
            <mxPoint x="20" as="offset" />
          </mxGeometry>
        </mxCell>
        <mxCell id="5peGIHOA3GwTtaJnXcMC-154" style="edgeStyle=orthogonalEdgeStyle;rounded=0;orthogonalLoop=1;jettySize=auto;html=1;curved=0;" edge="1" parent="1">
          <mxGeometry relative="1" as="geometry">
            <mxPoint x="345" y="2170" as="sourcePoint" />
            <mxPoint x="555" y="2170" as="targetPoint" />
            <Array as="points">
              <mxPoint x="550" y="2170" />
              <mxPoint x="550" y="2170" />
            </Array>
          </mxGeometry>
        </mxCell>
        <mxCell id="5peGIHOA3GwTtaJnXcMC-155" value="Insert faculty information&lt;br&gt;and credentials" style="edgeLabel;html=1;align=center;verticalAlign=middle;resizable=0;points=[];" vertex="1" connectable="0" parent="5peGIHOA3GwTtaJnXcMC-154">
          <mxGeometry x="-0.1905" relative="1" as="geometry">
            <mxPoint x="19" as="offset" />
          </mxGeometry>
        </mxCell>
        <mxCell id="5peGIHOA3GwTtaJnXcMC-156" value="" style="html=1;verticalAlign=bottom;labelBackgroundColor=none;endArrow=block;endFill=1;dashed=1;rounded=0;" edge="1" target="5peGIHOA3GwTtaJnXcMC-140" parent="1">
          <mxGeometry width="160" relative="1" as="geometry">
            <mxPoint x="550" y="2210" as="sourcePoint" />
            <mxPoint x="350" y="2210" as="targetPoint" />
            <Array as="points">
              <mxPoint x="445" y="2210" />
            </Array>
          </mxGeometry>
        </mxCell>
        <mxCell id="5peGIHOA3GwTtaJnXcMC-157" value="Confirm insertion" style="edgeLabel;html=1;align=center;verticalAlign=middle;resizable=0;points=[];" vertex="1" connectable="0" parent="5peGIHOA3GwTtaJnXcMC-156">
          <mxGeometry x="0.397" y="-1" relative="1" as="geometry">
            <mxPoint x="41" as="offset" />
          </mxGeometry>
        </mxCell>
        <mxCell id="5peGIHOA3GwTtaJnXcMC-158" value="" style="html=1;verticalAlign=bottom;labelBackgroundColor=none;endArrow=block;endFill=1;dashed=1;rounded=0;" edge="1" parent="1">
          <mxGeometry width="160" relative="1" as="geometry">
            <mxPoint x="330" y="2250" as="sourcePoint" />
            <mxPoint x="125" y="2250" as="targetPoint" />
            <Array as="points">
              <mxPoint x="230" y="2250" />
            </Array>
          </mxGeometry>
        </mxCell>
        <mxCell id="5peGIHOA3GwTtaJnXcMC-159" value="Display successful message" style="edgeLabel;html=1;align=center;verticalAlign=middle;resizable=0;points=[];" vertex="1" connectable="0" parent="5peGIHOA3GwTtaJnXcMC-158">
          <mxGeometry x="0.397" y="-1" relative="1" as="geometry">
            <mxPoint x="41" as="offset" />
          </mxGeometry>
        </mxCell>
        <mxCell id="5peGIHOA3GwTtaJnXcMC-160" style="edgeStyle=orthogonalEdgeStyle;rounded=0;orthogonalLoop=1;jettySize=auto;html=1;curved=0;exitX=1;exitY=0;exitDx=0;exitDy=5;exitPerimeter=0;entryX=0;entryY=0;entryDx=0;entryDy=5;entryPerimeter=0;" edge="1" parent="1">
          <mxGeometry relative="1" as="geometry">
            <mxPoint x="125" y="2320" as="sourcePoint" />
            <mxPoint x="334.9999999999998" y="2320" as="targetPoint" />
          </mxGeometry>
        </mxCell>
        <mxCell id="5peGIHOA3GwTtaJnXcMC-161" value="Press schedule button" style="edgeLabel;html=1;align=center;verticalAlign=middle;resizable=0;points=[];" vertex="1" connectable="0" parent="5peGIHOA3GwTtaJnXcMC-160">
          <mxGeometry x="-0.1905" relative="1" as="geometry">
            <mxPoint x="10" y="-5" as="offset" />
          </mxGeometry>
        </mxCell>
        <mxCell id="5peGIHOA3GwTtaJnXcMC-162" value="" style="html=1;verticalAlign=bottom;labelBackgroundColor=none;endArrow=block;endFill=1;rounded=0;" edge="1" parent="1">
          <mxGeometry width="160" relative="1" as="geometry">
            <mxPoint x="335" y="2350" as="sourcePoint" />
            <mxPoint x="125" y="2350" as="targetPoint" />
          </mxGeometry>
        </mxCell>
        <mxCell id="5peGIHOA3GwTtaJnXcMC-163" value="Display tabulated rooms" style="edgeLabel;html=1;align=center;verticalAlign=middle;resizable=0;points=[];" vertex="1" connectable="0" parent="5peGIHOA3GwTtaJnXcMC-162">
          <mxGeometry x="0.2076" y="-2" relative="1" as="geometry">
            <mxPoint x="22" as="offset" />
          </mxGeometry>
        </mxCell>
        <mxCell id="5peGIHOA3GwTtaJnXcMC-164" style="edgeStyle=orthogonalEdgeStyle;rounded=0;orthogonalLoop=1;jettySize=auto;html=1;curved=0;exitX=1;exitY=0;exitDx=0;exitDy=5;exitPerimeter=0;entryX=0;entryY=0;entryDx=0;entryDy=5;entryPerimeter=0;" edge="1" parent="1">
          <mxGeometry relative="1" as="geometry">
            <mxPoint x="125" y="2380" as="sourcePoint" />
            <mxPoint x="335" y="2380" as="targetPoint" />
          </mxGeometry>
        </mxCell>
        <mxCell id="5peGIHOA3GwTtaJnXcMC-165" value="Press a room" style="edgeLabel;html=1;align=center;verticalAlign=middle;resizable=0;points=[];" vertex="1" connectable="0" parent="5peGIHOA3GwTtaJnXcMC-164">
          <mxGeometry x="-0.1905" relative="1" as="geometry">
            <mxPoint x="10" as="offset" />
          </mxGeometry>
        </mxCell>
        <mxCell id="5peGIHOA3GwTtaJnXcMC-166" style="edgeStyle=orthogonalEdgeStyle;rounded=0;orthogonalLoop=1;jettySize=auto;html=1;curved=0;" edge="1" parent="1">
          <mxGeometry relative="1" as="geometry">
            <mxPoint x="345" y="2484.06" as="sourcePoint" />
            <mxPoint x="554.9999999999998" y="2484.0011764705882" as="targetPoint" />
            <Array as="points">
              <mxPoint x="550" y="2484.06" />
              <mxPoint x="550" y="2484.06" />
            </Array>
          </mxGeometry>
        </mxCell>
        <mxCell id="5peGIHOA3GwTtaJnXcMC-167" value="Insert room schedule" style="edgeLabel;html=1;align=center;verticalAlign=middle;resizable=0;points=[];" vertex="1" connectable="0" parent="5peGIHOA3GwTtaJnXcMC-166">
          <mxGeometry x="-0.1905" relative="1" as="geometry">
            <mxPoint x="19" as="offset" />
          </mxGeometry>
        </mxCell>
        <mxCell id="5peGIHOA3GwTtaJnXcMC-168" value="" style="html=1;verticalAlign=bottom;labelBackgroundColor=none;endArrow=block;endFill=1;rounded=0;" edge="1" parent="1">
          <mxGeometry width="160" relative="1" as="geometry">
            <mxPoint x="330" y="2410" as="sourcePoint" />
            <mxPoint x="125" y="2410" as="targetPoint" />
          </mxGeometry>
        </mxCell>
        <mxCell id="5peGIHOA3GwTtaJnXcMC-169" value="Display schedule form" style="edgeLabel;html=1;align=center;verticalAlign=middle;resizable=0;points=[];" vertex="1" connectable="0" parent="5peGIHOA3GwTtaJnXcMC-168">
          <mxGeometry x="0.2076" y="-2" relative="1" as="geometry">
            <mxPoint x="24" y="2" as="offset" />
          </mxGeometry>
        </mxCell>
        <mxCell id="5peGIHOA3GwTtaJnXcMC-170" style="edgeStyle=orthogonalEdgeStyle;rounded=0;orthogonalLoop=1;jettySize=auto;html=1;curved=0;exitX=1;exitY=0;exitDx=0;exitDy=5;exitPerimeter=0;" edge="1" parent="1">
          <mxGeometry relative="1" as="geometry">
            <mxPoint x="130" y="2450" as="sourcePoint" />
            <mxPoint x="330.57971014492756" y="2450" as="targetPoint" />
          </mxGeometry>
        </mxCell>
        <mxCell id="5peGIHOA3GwTtaJnXcMC-171" value="Enter room schedule&amp;nbsp;&lt;br&gt;details" style="edgeLabel;html=1;align=center;verticalAlign=middle;resizable=0;points=[];" vertex="1" connectable="0" parent="5peGIHOA3GwTtaJnXcMC-170">
          <mxGeometry x="-0.1905" relative="1" as="geometry">
            <mxPoint x="10" as="offset" />
          </mxGeometry>
        </mxCell>
        <mxCell id="5peGIHOA3GwTtaJnXcMC-181" style="edgeStyle=orthogonalEdgeStyle;rounded=0;orthogonalLoop=1;jettySize=auto;html=1;curved=0;exitX=1;exitY=0;exitDx=0;exitDy=5;exitPerimeter=0;entryX=0;entryY=0;entryDx=0;entryDy=5;entryPerimeter=0;" edge="1" target="5peGIHOA3GwTtaJnXcMC-142" parent="1">
          <mxGeometry relative="1" as="geometry">
            <mxPoint x="125" y="2730" as="sourcePoint" />
          </mxGeometry>
        </mxCell>
        <mxCell id="5peGIHOA3GwTtaJnXcMC-182" value="Press room assigment button" style="edgeLabel;html=1;align=center;verticalAlign=middle;resizable=0;points=[];" vertex="1" connectable="0" parent="5peGIHOA3GwTtaJnXcMC-181">
          <mxGeometry x="-0.1905" relative="1" as="geometry">
            <mxPoint x="20" y="-5" as="offset" />
          </mxGeometry>
        </mxCell>
        <mxCell id="5peGIHOA3GwTtaJnXcMC-183" value="" style="html=1;verticalAlign=bottom;labelBackgroundColor=none;endArrow=block;endFill=1;rounded=0;" edge="1" parent="1">
          <mxGeometry width="160" relative="1" as="geometry">
            <mxPoint x="335" y="2875" as="sourcePoint" />
            <mxPoint x="125" y="2875" as="targetPoint" />
          </mxGeometry>
        </mxCell>
        <mxCell id="5peGIHOA3GwTtaJnXcMC-184" value="Display room details" style="edgeLabel;html=1;align=center;verticalAlign=middle;resizable=0;points=[];" vertex="1" connectable="0" parent="5peGIHOA3GwTtaJnXcMC-183">
          <mxGeometry x="0.2076" y="-2" relative="1" as="geometry">
            <mxPoint x="22" y="2" as="offset" />
          </mxGeometry>
        </mxCell>
        <mxCell id="5peGIHOA3GwTtaJnXcMC-185" style="edgeStyle=orthogonalEdgeStyle;rounded=0;orthogonalLoop=1;jettySize=auto;html=1;curved=0;" edge="1" parent="1">
          <mxGeometry relative="1" as="geometry">
            <mxPoint x="345" y="2829.5699999999997" as="sourcePoint" />
            <mxPoint x="555" y="2829.5699999999997" as="targetPoint" />
            <Array as="points">
              <mxPoint x="550" y="2829.5699999999997" />
              <mxPoint x="550" y="2829.5699999999997" />
            </Array>
          </mxGeometry>
        </mxCell>
        <mxCell id="5peGIHOA3GwTtaJnXcMC-186" value="Get room schedules" style="edgeLabel;html=1;align=center;verticalAlign=middle;resizable=0;points=[];" vertex="1" connectable="0" parent="5peGIHOA3GwTtaJnXcMC-185">
          <mxGeometry x="-0.1905" relative="1" as="geometry">
            <mxPoint x="20" as="offset" />
          </mxGeometry>
        </mxCell>
        <mxCell id="5peGIHOA3GwTtaJnXcMC-187" value="" style="html=1;verticalAlign=bottom;labelBackgroundColor=none;endArrow=block;endFill=1;dashed=1;rounded=0;" edge="1" parent="1">
          <mxGeometry width="160" relative="1" as="geometry">
            <mxPoint x="555" y="2859.5699999999997" as="sourcePoint" />
            <mxPoint x="350" y="2859.5699999999997" as="targetPoint" />
            <Array as="points">
              <mxPoint x="450" y="2859.5699999999997" />
            </Array>
          </mxGeometry>
        </mxCell>
        <mxCell id="5peGIHOA3GwTtaJnXcMC-188" value="Return room schdeules" style="edgeLabel;html=1;align=center;verticalAlign=middle;resizable=0;points=[];" vertex="1" connectable="0" parent="5peGIHOA3GwTtaJnXcMC-187">
          <mxGeometry x="0.397" y="-1" relative="1" as="geometry">
            <mxPoint x="41" as="offset" />
          </mxGeometry>
        </mxCell>
        <mxCell id="5peGIHOA3GwTtaJnXcMC-189" value="" style="html=1;verticalAlign=bottom;labelBackgroundColor=none;endArrow=block;endFill=1;rounded=0;" edge="1" parent="1">
          <mxGeometry width="160" relative="1" as="geometry">
            <mxPoint x="335" y="2765" as="sourcePoint" />
            <mxPoint x="125" y="2765" as="targetPoint" />
          </mxGeometry>
        </mxCell>
        <mxCell id="5peGIHOA3GwTtaJnXcMC-190" value="Display floorplan of rooms" style="edgeLabel;html=1;align=center;verticalAlign=middle;resizable=0;points=[];" vertex="1" connectable="0" parent="5peGIHOA3GwTtaJnXcMC-189">
          <mxGeometry x="0.2076" y="-2" relative="1" as="geometry">
            <mxPoint x="22" as="offset" />
          </mxGeometry>
        </mxCell>
        <mxCell id="5peGIHOA3GwTtaJnXcMC-191" style="edgeStyle=orthogonalEdgeStyle;rounded=0;orthogonalLoop=1;jettySize=auto;html=1;curved=0;exitX=1;exitY=0;exitDx=0;exitDy=5;exitPerimeter=0;entryX=0;entryY=0;entryDx=0;entryDy=5;entryPerimeter=0;" edge="1" parent="1">
          <mxGeometry relative="1" as="geometry">
            <mxPoint x="125" y="2805" as="sourcePoint" />
            <mxPoint x="335" y="2805" as="targetPoint" />
          </mxGeometry>
        </mxCell>
        <mxCell id="5peGIHOA3GwTtaJnXcMC-192" value="Press a room" style="edgeLabel;html=1;align=center;verticalAlign=middle;resizable=0;points=[];" vertex="1" connectable="0" parent="5peGIHOA3GwTtaJnXcMC-191">
          <mxGeometry x="-0.1905" relative="1" as="geometry">
            <mxPoint x="20" y="-5" as="offset" />
          </mxGeometry>
        </mxCell>
        <mxCell id="5peGIHOA3GwTtaJnXcMC-193" value="Sequence Diagram for Manage Room Schedule Use case" style="text;strokeColor=none;align=center;fillColor=none;html=1;verticalAlign=middle;whiteSpace=wrap;rounded=0;" vertex="1" parent="1">
          <mxGeometry x="30" y="1840" width="240" height="30" as="geometry" />
        </mxCell>
        <mxCell id="5peGIHOA3GwTtaJnXcMC-196" value="" style="html=1;points=[[0,0,0,0,5],[0,1,0,0,-5],[1,0,0,0,5],[1,1,0,0,-5]];perimeter=orthogonalPerimeter;outlineConnect=0;targetShapes=umlLifeline;portConstraint=eastwest;newEdgeStyle={&quot;curved&quot;:0,&quot;rounded&quot;:0};" vertex="1" parent="1">
          <mxGeometry x="105" y="1510" width="10" height="180" as="geometry" />
        </mxCell>
      </root>
    </mxGraphModel>
  </diagram>
</mxfile>
